<?xml version="1.0" encoding="UTF-8" standalone="no"?>
<svg
   width="500"
   height="500"
   viewBox="0 0 500 500"
   version="1.1"
   xml:space="preserve"
   style="clip-rule:evenodd;fill-rule:evenodd;stroke-linejoin:round;stroke-miterlimit:2"
   id="svg3"
   sodipodi:docname="logo-plain.svg"
   inkscape:version="1.1.2 (b8e25be833, 2022-02-05)"
   xmlns:inkscape="http://www.inkscape.org/namespaces/inkscape"
   xmlns:sodipodi="http://sodipodi.sourceforge.net/DTD/sodipodi-0.dtd"
   xmlns="http://www.w3.org/2000/svg"
   xmlns:svg="http://www.w3.org/2000/svg"><defs
   id="defs7" /><sodipodi:namedview
   id="namedview5"
   pagecolor="#ffffff"
   bordercolor="#666666"
   borderopacity="1.0"
   inkscape:pageshadow="2"
   inkscape:pageopacity="0.0"
   inkscape:pagecheckerboard="0"
   showgrid="false"
   inkscape:zoom="1.5674954"
   inkscape:cx="360.12865"
   inkscape:cy="255.18416"
   inkscape:window-width="1920"
   inkscape:window-height="1009"
   inkscape:window-x="1912"
   inkscape:window-y="-8"
   inkscape:window-maximized="1"
   inkscape:current-layer="layer4" />
    
<path
   id="path8468"
   style="display:inline;fill:#fb1a04;fill-opacity:1;stroke-width:0.633614"
   d="M 184.98242 100.00977 C 179.99609 99.923852 174.9707 100.35957 169.96094 101.33594 C 129.58984 109.21536 100 150.05014 100 197.94336 L 100 201.91797 C 100 230.35241 110.07813 257.55312 127.89062 276.94336 L 233.76953 392.53125 C 238.16407 397.32743 243.96484 400 250 400 C 256.03516 400 261.83595 397.32743 266.23047 392.53125 L 372.10938 276.94336 C 389.92188 257.55312 400 230.35241 400 201.91797 L 400 197.94336 C 400 150.05014 370.41016 109.21536 330.03906 101.33594 C 303.32032 96.128665 276.13283 106.33737 257.03125 128.67383 L 250 136.89648 L 242.96875 128.67383 C 227.44873 110.52545 206.58986 100.38206 184.98242 100.00977 z M 251.18555 163.91406 C 269.40177 163.91406 284.69172 169.47666 297.05273 180.60156 C 309.41374 191.72647 315.59375 206.07107 315.59375 223.63672 C 315.59375 237.62417 310.74637 250.21238 301.05273 261.40234 C 291.3591 272.59231 280.46211 278.1875 268.36133 278.1875 C 263.54704 278.1875 259.74085 276.98526 256.94336 274.57812 C 254.14587 272.17098 252.65025 268.65622 252.45508 264.03711 C 246.46974 268.8514 241.58977 272.39875 237.81641 274.67578 C 234.10811 276.88775 231.11492 277.99219 228.83789 277.99219 C 221.61646 277.99219 215.86023 275.32499 211.56641 269.99023 C 207.33764 264.59043 205.22266 257.76041 205.22266 249.49805 C 205.22266 234.86001 209.71146 222.49804 218.68945 212.41406 C 227.66745 202.33008 238.98822 197.28906 252.65039 197.28906 C 257.78997 197.28906 263.77439 198.33026 270.60547 200.41211 C 273.6632 199.82659 276.91717 198.91579 280.36523 197.67969 L 281.53516 198.36133 C 279.58342 204.86712 277.3074 214.52929 274.70508 227.3457 L 268.55664 257.5 C 268.16629 259.38668 267.9707 260.94749 267.9707 262.18359 C 267.9707 264.52568 268.52488 266.21689 269.63086 267.25781 C 270.73685 268.23368 272.36285 268.72266 274.50977 268.72266 C 282.31672 268.72266 289.40752 264.20126 295.7832 255.1582 C 302.15888 246.05009 305.34766 235.8683 305.34766 224.61328 C 305.34766 208.54397 300.14169 195.59719 289.73242 185.77344 C 279.38821 175.94969 266.44142 171.03711 250.89258 171.03711 C 230.78967 171.03711 214.52568 177.70609 202.09961 191.04297 C 189.7386 204.37984 183.55859 221.55464 183.55859 242.56836 C 183.55859 261.82551 189.44522 277.4395 201.2207 289.41016 C 213.06125 301.44588 228.64264 307.46484 247.96484 307.46484 C 270.47489 307.46484 290.35144 299.36349 307.5918 283.16406 L 311.78711 287.84961 C 292.13961 307.56216 269.20663 317.41797 242.98828 317.41797 C 220.86858 317.41797 203.01118 310.71639 189.41406 297.31445 C 175.81695 283.91251 169.01758 266.57473 169.01758 245.30078 C 169.01758 221.81487 176.69515 202.3947 192.04883 187.04102 C 207.46756 171.62229 227.17917 163.91406 251.18555 163.91406 z M 251.2832 204.2168 C 243.02085 204.2168 236.02783 208.51001 230.30273 217.09766 C 224.57763 225.62025 221.71484 235.08682 221.71484 245.49609 C 221.71484 251.48142 222.78863 256.4592 224.93555 260.42773 C 227.14751 264.39627 230.30174 266.38086 234.40039 266.38086 C 238.04364 266.38086 244.29079 263.28988 253.13867 257.10938 L 263.38477 207.4375 C 259.28612 205.29059 255.25174 204.2168 251.2832 204.2168 z " /><g
   inkscape:groupmode="layer"
   id="layer4"
   inkscape:label="Final" /></svg>
