<?xml version="1.0" encoding="UTF-8" standalone="no"?>
<!-- Created with Inkscape (http://www.inkscape.org/) -->

<svg
   width="1024"
   height="1024"
   viewBox="0 0 1024 1024"
   version="1.1"
   id="svg1"
   xml:space="preserve"
   inkscape:version="1.3.2 (091e20e, 2023-11-25, custom)"
   sodipodi:docname="logo-orange.svg"
   xmlns:inkscape="http://www.inkscape.org/namespaces/inkscape"
   xmlns:sodipodi="http://sodipodi.sourceforge.net/DTD/sodipodi-0.dtd"
   xmlns="http://www.w3.org/2000/svg"
   xmlns:svg="http://www.w3.org/2000/svg"><sodipodi:namedview
     id="namedview1"
     pagecolor="#ffffff"
     bordercolor="#000000"
     borderopacity="0.25"
     inkscape:showpageshadow="2"
     inkscape:pageopacity="0.0"
     inkscape:pagecheckerboard="0"
     inkscape:deskcolor="#d1d1d1"
     inkscape:document-units="mm"
     inkscape:zoom="0.92292368"
     inkscape:cx="397.10759"
     inkscape:cy="474.03703"
     inkscape:window-width="1920"
     inkscape:window-height="1009"
     inkscape:window-x="1912"
     inkscape:window-y="-8"
     inkscape:window-maximized="1"
     inkscape:current-layer="layer2" /><defs
     id="defs1" /><g
     inkscape:label="Layer 1"
     inkscape:groupmode="layer"
     id="layer1" /><g
     inkscape:groupmode="layer"
     id="layer2"
     inkscape:label="Layer 2"><path
       id="🎨-Color"
       style="fill:#ff2600;fill-rule:nonzero;stroke:none;stroke-width:45.96283465;stroke-dasharray:none;fill-opacity:1"
       inkscape:label="Comment"
       d="M 209.59961,64 C 129.18709,64 64,132.61979 64,217.26562 v 400.84571 c 0,84.64583 65.18709,153.26562 145.59961,153.26562 h 33.56445 l 0.0352,129.68164 c 0,12.71794 3.91407,25.10437 11.15625,35.29688 18.52406,26.07051 53.61801,31.39771 78.38476,11.89844 L 557.35938,771.37695 H 814.40039 C 894.8129,771.37695 960,702.75716 960,618.11133 V 217.26562 C 960,132.61979 894.8129,64 814.40039,64 Z M 504,96 c 176.72945,0 320,143.26898 320,320 l -0.006,0.60742 c -1.33433,70.07673 -23.65229,117.27754 -56.55469,146.57031 -32.12473,28.60474 -70.17198,36.4004 -96.70312,36.40039 -38.16,0 -71.66123,-19.81404 -90.81641,-49.71484 -66.45113,58.71994 -162.23791,71.62391 -221.38672,5.90234 -61.62679,-68.47349 -44.44661,-182.80216 21.30469,-255.85937 63.61434,-70.68345 179.28847,-97.97616 245.70117,-16.20313 5.70883,-15.59518 22.5834,-24.36487 38.81055,-19.74023 16.99838,4.84384 26.84752,22.54846 22.00586,39.54492 -18.95035,66.44474 -41.31504,132.26426 -58.02539,199.27539 4.86719,18.85758 22.03507,32.79492 42.40625,32.79492 15.32798,0 36.70647,-4.67283 54.14648,-20.19921 C 741.51643,500.56932 758.8672,472.05369 760,415.69531 759.83667,274.45065 645.28309,160 504,160 362.61518,160 248,274.61518 248,416 c 0,141.38546 114.61518,256 256,256 38.47359,0 74.87919,-8.46628 107.53516,-23.60547 16.03521,-7.43359 35.06054,-0.46116 42.49414,15.57422 7.43359,16.03198 0.46116,35.05469 -15.57422,42.48828 C 597.53672,725.42661 551.95835,736 504,736 327.26897,736 184,592.72942 184,416 184,239.26898 327.26897,96 504,96 Z m 13.4043,200.57227 c -28.26982,0.0782 -60.95005,13.87377 -89.9961,46.14648 -51.91071,57.68027 -53.80583,134.11924 -21.30273,170.23437 29.41434,32.68157 92.53477,33.69892 144.16992,-23.67382 11.93599,-13.26399 23.17711,-27.01047 29.02344,-44.03125 2.227,-7.6832 8.09897,-28.20524 14.92773,-52.09961 7.48163,-26.20798 -2.2018,-51.38155 -22.64648,-74.09961 -12.8688,-14.29875 -32.18815,-22.53737 -54.17578,-22.47656 z" /></g></svg>
