<?xml version="1.0" encoding="UTF-8" standalone="no"?>
<!-- Created with Inkscape (http://www.inkscape.org/) -->

<svg
   width="1024"
   height="1024"
   viewBox="0 0 1024 1024"
   version="1.1"
   id="svg1"
   xml:space="preserve"
   inkscape:version="1.3.2 (091e20e, 2023-11-25, custom)"
   sodipodi:docname="appiconfg.svg"
   xmlns:inkscape="http://www.inkscape.org/namespaces/inkscape"
   xmlns:sodipodi="http://sodipodi.sourceforge.net/DTD/sodipodi-0.dtd"
   xmlns="http://www.w3.org/2000/svg"
   xmlns:svg="http://www.w3.org/2000/svg"><sodipodi:namedview
     id="namedview1"
     pagecolor="#ffffff"
     bordercolor="#000000"
     borderopacity="0.25"
     inkscape:showpageshadow="2"
     inkscape:pageopacity="0.0"
     inkscape:pagecheckerboard="0"
     inkscape:deskcolor="#d1d1d1"
     inkscape:document-units="mm"
     inkscape:zoom="0.92292368"
     inkscape:cx="397.10759"
     inkscape:cy="474.03703"
     inkscape:window-width="1920"
     inkscape:window-height="1009"
     inkscape:window-x="1912"
     inkscape:window-y="-8"
     inkscape:window-maximized="1"
     inkscape:current-layer="layer2" /><defs
     id="defs1" /><g
     inkscape:label="Layer 1"
     inkscape:groupmode="layer"
     id="layer1" /><g
     inkscape:groupmode="layer"
     id="layer2"
     inkscape:label="Layer 2"><path
       id="🎨-Color"
       style="fill:#ff2600;fill-opacity:1;fill-rule:nonzero;stroke:none;stroke-width:32.9598;stroke-dasharray:none"
       inkscape:label="Comment"
       d="m 293.38554,188.97638 c -57.66363,0 -104.40916,49.20708 -104.40916,109.90643 V 586.3284 c 0,60.69935 46.74553,109.90644 104.40916,109.90644 h 24.06899 l 0.0253,92.99445 c 0,9.11996 2.80678,18.00224 8.00013,25.31126 13.28357,18.69516 38.44936,22.51528 56.20954,8.53238 L 542.76334,696.23484 h 184.32354 c 57.66365,0 104.40919,-49.20709 104.40919,-109.90644 V 298.88281 c 0,-60.69935 -46.74554,-109.90643 -104.40919,-109.90643 z m 211.11388,22.94712 c 126.7323,0 229.4713,102.73789 229.4713,229.47131 l -0.004,0.43557 c -0.95684,50.25188 -16.961,84.09947 -40.55524,105.10527 -23.03657,20.51239 -50.32018,26.10264 -69.3456,26.10263 -27.36444,0 -51.38811,-14.20859 -65.12426,-35.65042 -47.65193,42.10796 -116.34043,51.36137 -158.75592,4.23257 -44.19244,-49.10218 -31.87256,-131.08703 15.27755,-183.47619 45.6177,-50.68694 128.56736,-70.25848 176.19177,-11.61923 4.09379,-11.18328 16.19452,-17.472 27.83096,-14.15567 12.1895,3.47349 19.25229,16.16944 15.78036,28.35757 -13.58927,47.64736 -29.62693,94.84641 -41.60989,142.89994 3.49026,13.52274 15.80131,23.51715 30.40943,23.51715 10.99167,0 26.32213,-3.35086 38.82833,-14.48478 11.92804,-10.61993 24.37023,-31.06844 25.18256,-71.48291 -0.11718,-101.28622 -82.26326,-183.35854 -183.57704,-183.35854 -101.38675,0 -183.57705,82.1903 -183.57705,183.57704 0,101.38722 82.1903,183.57704 183.57705,183.57704 27.58932,0 53.69571,-6.07115 77.11324,-16.92743 11.4988,-5.33061 25.14183,-0.3307 30.47245,11.16824 5.3306,11.4965 0.33069,25.13764 -11.16825,30.46827 -29.34248,13.60303 -62.02661,21.1852 -96.41744,21.1852 -126.73344,0 -229.47131,-102.73904 -229.47131,-229.47132 0,-126.73342 102.73787,-229.47131 229.47131,-229.47131 z m 9.61219,143.82996 c -20.27222,0.0561 -43.70714,9.94884 -64.536,33.09153 -37.22507,41.36239 -38.58405,96.17661 -15.27614,122.07469 21.09296,23.43589 66.35647,24.16543 103.38394,-16.97643 8.55926,-9.5116 16.62025,-19.36917 20.81264,-31.57473 1.59697,-5.50961 5.80774,-20.22592 10.70465,-37.36051 5.36505,-18.79369 -1.57891,-36.8456 -16.23975,-53.13668 -9.2282,-10.25359 -23.08205,-16.16149 -38.84934,-16.11787 z" /></g></svg>
